<svg width="25" height="25" viewBox="0 0 25 25" fill="none" xmlns="http://www.w3.org/2000/svg">
<path d="M8.72 11.608C9.02933 11.4853 9.33867 11.328 9.648 11.136C9.96267 10.944 10.24 10.7173 10.48 10.456H11.16V16H10.192V11.752C10.048 11.864 9.86667 11.9733 9.648 12.08C9.42933 12.1867 9.21867 12.2747 9.016 12.344L8.72 11.608ZM15.6109 14.416C15.6109 14.24 15.5762 14.0827 15.5069 13.944C15.4375 13.8053 15.3149 13.688 15.1389 13.592C14.9682 13.496 14.7362 13.424 14.4429 13.376C14.1549 13.328 13.7895 13.304 13.3469 13.304C13.4055 12.792 13.4509 12.3067 13.4829 11.848C13.5149 11.384 13.5415 10.92 13.5629 10.456H16.3949V11.272H14.3869C14.3815 11.3627 14.3735 11.4667 14.3629 11.584C14.3575 11.696 14.3495 11.8107 14.3389 11.928C14.3335 12.0453 14.3255 12.1573 14.3149 12.264C14.3042 12.3707 14.2935 12.4613 14.2829 12.536C15.0722 12.5787 15.6535 12.76 16.0269 13.08C16.4055 13.3947 16.5949 13.8267 16.5949 14.376C16.5949 14.6267 16.5522 14.8587 16.4669 15.072C16.3815 15.2853 16.2509 15.4693 16.0749 15.624C15.8989 15.7787 15.6775 15.9013 15.4109 15.992C15.1442 16.0773 14.8322 16.12 14.4749 16.12C14.3309 16.12 14.1842 16.1093 14.0349 16.088C13.8855 16.0667 13.7415 16.04 13.6029 16.008C13.4695 15.9813 13.3495 15.952 13.2429 15.92C13.1362 15.888 13.0562 15.8587 13.0029 15.832L13.1869 15.016C13.2989 15.0693 13.4589 15.128 13.6669 15.192C13.8802 15.2507 14.1389 15.28 14.4429 15.28C14.6509 15.28 14.8295 15.2587 14.9789 15.216C15.1282 15.168 15.2482 15.104 15.3389 15.024C15.4349 14.944 15.5042 14.8533 15.5469 14.752C15.5895 14.6453 15.6109 14.5333 15.6109 14.416Z" fill="white"/>
<path d="M25 12.4764C25.0128 19.3635 19.3227 24.9952 12.3454 25C9.0766 25.0023 6.0966 23.7821 3.84874 21.7771C3.58847 21.545 3.57811 21.1449 3.82612 20.9001L4.69216 20.0453C4.92342 19.817 5.29348 19.8104 5.53751 20.0254C7.3427 21.6151 9.72429 22.5806 12.3363 22.5806C17.9813 22.5806 22.5489 18.0712 22.5489 12.5C22.5489 6.92797 17.9804 2.41935 12.3363 2.41935C9.50124 2.41935 6.93848 3.55716 5.08922 5.39531L7.59597 7.83548C7.98615 8.21527 7.71367 8.87097 7.16571 8.87097H0.61276C0.274363 8.87097 0 8.60015 0 8.26613V1.88725C0 1.3504 0.655806 1.07964 1.04302 1.4566L3.34582 3.69824C5.64014 1.41467 8.82057 0 12.3363 0C19.3223 0 24.9871 5.58372 25 12.4764Z" fill="white"/>
</svg>
