<svg width="21" height="20" viewBox="0 0 21 20" fill="none" xmlns="http://www.w3.org/2000/svg">
<g clip-path="url(#clip0_508_5396)">
<path fill-rule="evenodd" clip-rule="evenodd" d="M10.5001 0.000405577C13.143 -0.00162074 15.6894 0.951835 17.631 2.6704C19.5726 4.38896 20.7664 6.74616 20.974 9.27135C21.1817 11.7965 20.3879 14.3039 18.7512 16.2927C17.1145 18.2816 14.7554 19.6056 12.1448 20.0004V12.9685H14.5826L15.0492 10.0619H12.1448V8.17257C12.1233 7.95603 12.1532 7.73765 12.2323 7.53376C12.3113 7.32988 12.4375 7.14577 12.6013 6.99523C12.7651 6.84468 12.9623 6.7316 13.1782 6.66445C13.394 6.5973 13.6229 6.57781 13.8478 6.60745H15.1658V4.12562C14.3938 4.01005 13.6143 3.94654 12.833 3.93557C12.2917 3.89679 11.7481 3.97233 11.2406 4.15688C10.7331 4.34143 10.2741 4.63047 9.89585 5.00362C9.51764 5.37677 9.22948 5.82492 9.05172 6.31646C8.87395 6.80799 8.81091 7.33093 8.86704 7.84837V10.0843H6.19588V12.9909H8.85538V20.0228C6.21008 19.664 3.80701 18.3522 2.13576 16.3545C0.464516 14.3567 -0.349154 11.8235 -0.139472 9.27085C0.07021 6.71819 1.28747 4.33818 3.2643 2.61573C5.24112 0.893283 7.82878 -0.0420118 10.5001 0.000405577Z" fill="#787878"/>
</g>
<defs>
<clipPath id="clip0_508_5396">
<rect width="21" height="20" fill="white"/>
</clipPath>
</defs>
</svg>
