<svg width="29" height="20" viewBox="0 0 29 20" fill="none" xmlns="http://www.w3.org/2000/svg">
<g clip-path="url(#clip0_508_5397)">
<path d="M28.3836 3.15428C28.2239 2.54934 27.9035 1.99641 27.4547 1.55156C27.0058 1.1067 26.4446 0.785749 25.8279 0.621244C22.0698 0.17471 18.2854 -0.0264892 14.4998 0.0189833C10.7143 -0.0264892 6.92985 0.17471 3.1717 0.621244C2.55167 0.783022 1.9867 1.10276 1.53451 1.5478C1.08232 1.99283 0.759127 2.54721 0.597946 3.15428C0.185063 5.41672 -0.0151461 7.71134 -0.00017849 10.0094C-0.0155363 12.3083 0.190793 14.6035 0.616072 16.8646C0.775696 17.4695 1.09617 18.0225 1.54499 18.4673C1.99381 18.9122 2.55501 19.2331 3.1717 19.3976C6.92985 19.8442 10.7143 20.0454 14.4998 19.9999C18.2854 20.0454 22.0698 19.8442 25.8279 19.3976C26.448 19.2358 27.0129 18.9161 27.4651 18.4711C27.9173 18.026 28.2405 17.4717 28.4017 16.8646C28.8146 14.6021 29.0148 12.3075 28.9998 10.0094C29.0152 7.71054 28.8089 5.41535 28.3836 3.15428ZM11.5273 14.2253V5.79361L19.1217 10.0094L11.5273 14.2253Z" fill="#787878"/>
</g>
<defs>
<clipPath id="clip0_508_5397">
<rect width="29" height="20" fill="white"/>
</clipPath>
</defs>
</svg>
